<?xml version="1.0" encoding="UTF-8" standalone="no" ?>
<!DOCTYPE svg PUBLIC "-//W3C//DTD SVG 1.1//EN" "http://www.w3.org/Graphics/SVG/1.1/DTD/svg11.dtd">
<svg xmlns="http://www.w3.org/2000/svg" xmlns:xlink="http://www.w3.org/1999/xlink" version="1.1" width="1080" height="1080" viewBox="0 0 1080 1080" xml:space="preserve">
<desc>Created with Fabric.js 5.2.4</desc>
<defs>
</defs>
<g transform="matrix(1 0 0 1 540 540)" id="fcc12dc3-2486-4061-b197-d80f36b2cc5c"  >
<rect style="stroke: none; stroke-width: 1; stroke-dasharray: none; stroke-linecap: butt; stroke-dashoffset: 0; stroke-linejoin: miter; stroke-miterlimit: 4; fill: rgb(255,255,255); fill-rule: nonzero; opacity: 1; visibility: hidden;" vector-effect="non-scaling-stroke"  x="-540" y="-540" rx="0" ry="0" width="1080" height="1080" />
</g>
<g transform="matrix(1 0 0 1 540 540)" id="ba8f0bf2-9b52-4fd4-b4c3-5774f04bcd22"  >
</g>
<g transform="matrix(0.22 0 0 0.22 469.34 757.96)" id="path111"  >
<path style="stroke: none; stroke-width: 1; stroke-dasharray: none; stroke-linecap: butt; stroke-dashoffset: 0; stroke-linejoin: miter; stroke-miterlimit: 4; fill: rgb(100,96,240); fill-rule: nonzero; opacity: 1;" vector-effect="non-scaling-stroke"  transform=" translate(-941, -3880)" d="M 1200 5074 C 1148 4982 1095 4891 1084 4871 C 1072 4851 1013 4750 953 4645 C 825 4424 684 4179 557 3960 C 508 3875 426 3733 375 3645 C 324 3557 230 3393 165 3280 C 34 3054 10 2990 10 2872 C 10 2773 31 2699 86 2601 C 111 2556 133 2520 135 2520 C 138 2520 189 2607 335 2860 C 374 2929 467 3089 540 3215 C 613 3342 705 3501 745 3570 C 785 3639 868 3783 930 3890 C 992 3997 1050 4099 1060 4115 C 1157 4284 1271 4482 1287 4508 L 1308 4542 L 1336 4493 C 1362 4447 1414 4357 1450 4295 C 1543 4135 1661 3931 1697 3868 C 1721 3825 1743 3790 1745 3790 C 1747 3790 1768 3823 1791 3862 C 1850 3962 1872 4038 1872 4135 C 1872 4271 1873 4270 1560 4810 C 1498 4917 1418 5058 1381 5122 C 1345 5187 1311 5240 1305 5240 C 1300 5240 1252 5165 1200 5074 z" stroke-linecap="round" />
</g>
<g transform="matrix(0.22 0 0 0.22 525.44 430.87)" id="path125"  >
<path style="stroke: none; stroke-width: 1; stroke-dasharray: none; stroke-linecap: butt; stroke-dashoffset: 0; stroke-linejoin: miter; stroke-miterlimit: 4; fill: rgb(100,96,240); fill-rule: nonzero; opacity: 1;" vector-effect="non-scaling-stroke"  transform=" translate(-1200.62, -2366.42)" d="M 1286 4208 C 1279 4195 1219 4093 1155 3980 C 1090 3867 1007 3723 970 3660 C 933 3597 832 3421 745 3270 C 658 3119 575 2975 560 2950 C 407 2704 352 2455 395 2193 C 425 2007 410 2038 992 1030 C 1105 835 1219 637 1246 591 C 1273 545 1300 505 1306 503 C 1321 498 1382 608 1409 687 C 1435 764 1438 902 1415 976 C 1395 1038 1343 1135 1185 1402 C 1180 1411 1144 1472 1107 1537 C 1070 1602 1029 1673 1016 1695 C 1003 1717 960 1791 920 1860 C 756 2145 745 2177 746 2365 C 747 2566 732 2534 1145 3248 C 1273 3471 1305 3519 1315 3508 C 1322 3501 1372 3419 1425 3325 C 1479 3232 1574 3067 1635 2960 C 1697 2853 1777 2713 1814 2650 C 1850 2587 1885 2535 1892 2535 C 1908 2535 1969 2642 1997 2720 C 2029 2811 2028 2917 1995 3016 C 1973 3082 1961 3107 1913 3185 C 1906 3196 1872 3257 1835 3320 C 1799 3383 1759 3453 1746 3475 C 1733 3497 1688 3574 1647 3646 C 1605 3718 1563 3791 1553 3808 C 1543 3825 1499 3901 1456 3977 C 1363 4139 1308 4230 1304 4230 C 1302 4230 1294 4220 1286 4208 z" stroke-linecap="round" />
</g>
<g transform="matrix(0.22 0 0 0.22 635.63 457.48)" id="path127"  >
<path style="stroke: none; stroke-width: 1; stroke-dasharray: none; stroke-linecap: butt; stroke-dashoffset: 0; stroke-linejoin: miter; stroke-miterlimit: 4; fill: rgb(100,96,240); fill-rule: nonzero; opacity: 1;" vector-effect="non-scaling-stroke"  transform=" translate(-1710.48, -2489.57)" d="M 2023 3958 C 1994 3920 1949 3826 1930 3761 C 1911 3701 1908 3673 1913 3606 C 1920 3506 1942 3442 2010 3325 C 2132 3117 2163 3027 2164 2880 C 2165 2767 2142 2664 2094 2570 C 2065 2512 1925 2268 1900 2230 C 1889 2213 1889 2214 1839 2300 C 1824 2325 1771 2417 1720 2505 C 1669 2593 1618 2682 1606 2702 C 1512 2866 1445 2983 1420 3025 C 1403 3053 1373 3105 1353 3142 C 1332 3180 1311 3210 1305 3210 C 1300 3210 1257 3144 1211 3062 C 1164 2981 1088 2850 1042 2770 C 897 2522 895 2517 895 2365 C 895 2214 894 2217 1027 1985 C 1444 1256 1589 1010 1600 1010 C 1619 1010 1692 1153 1710 1227 C 1735 1322 1735 1367 1711 1461 C 1695 1522 1593 1728 1550 1785 C 1546 1791 1531 1815 1518 1840 C 1504 1865 1451 1957 1400 2045 C 1349 2133 1287 2240 1263 2282 L 1218 2360 L 1245 2407 C 1260 2434 1279 2468 1288 2483 C 1296 2499 1306 2508 1311 2503 C 1315 2499 1343 2452 1373 2400 C 1403 2348 1475 2222 1534 2120 C 1593 2018 1696 1839 1763 1723 C 1830 1606 1889 1512 1894 1513 C 1903 1516 1969 1628 2185 2005 C 2235 2093 2310 2224 2352 2295 C 2436 2440 2469 2517 2498 2635 C 2549 2841 2530 3065 2443 3265 C 2417 3326 2344 3456 2150 3790 C 2110 3859 2071 3927 2063 3943 C 2047 3973 2037 3976 2023 3958 z" stroke-linecap="round" />
</g>
</svg>