<svg xmlns="http://www.w3.org/2000/svg" xml:space="preserve" width="209" height="330" viewBox="0 0 55.297915 87.3125"><g style="display:inline"><path d="M40.133 85.304c1.314-.332.49-1.732-.052-3.613-1.132-3.934-4.133-15.049-5.389-15.057-.581-.004-1.643 2.849-2.66 5.69-1.017 2.84-1.99 5.67-2.535 5.665-1.17-.01-3.381-11.923-5.54-23.079-2.081-10.751-4.437-23.157-5.432-23.143-1.612.024-5.988 29.482-7.716 29.433-.428-.012-1.182-2.476-1.97-6.108-.787-3.632-1.61-8.433-2.456-13.12-.36-1.99-1.834-10.865-2.48-14.82-.647-3.956-.513-2.991-.883-5.276-.371-2.293-.92-5.107-1.206-6.414-.282-1.289-.495-1.053-.58-.748-.077.281-.074.692-.105 4.06-.03 3.367-.094 9.704-.118 14.892C.963 44.042.887 56.795.887 66l.094 8.78c1.697 6.328 9.408 9.593 17.468 11.102 8.293 1.551 16.95.617 21.684-.578z" style="display:inline;fill:#00e4bf;fill-opacity:1;stroke-width:.962001"/><path d="M27.422 60.766c16.15.013 22.88 5.85 22.785 5.706l.005 13.836c.365.589.75.312 1.129-.027.383-.344.794-.694 1.103-1.034.611-.672.808-.945 1.23-1.663.952-1.62 1.111-2.657 1.229-3.968 0 0-.052-27.626-.066-45.862-.007-9.117-.07-18.34-.104-22.574-.017-2.117-.05-3-.098-3.41-.053-.445-.133-.551-.247-.42-.498.578-1.212 5.503-2.123 10.792-.915 5.312-1.652 9.781-2.601 15.19-.938 5.346-1.805 9.044-2.284 9.05-1.446.018-4.037-16.587-5.176-16.637-.363-.016-.922 1.791-1.478 4.461-.555 2.67-1.15 6.208-1.712 9.77-1.107 7.034-2.393 14.294-3.193 14.14-1.24-.238-2.91-12.342-4.015-10.637-.579.893-1.27 3.684-2.237 9.27-.969 5.6-2.196 14.035-2.147 14.017Z" style="display:inline;fill:#00e4bf;fill-opacity:1;stroke-width:.962001"/></g></svg>