<!DOCTYPE svg PUBLIC "-//W3C//DTD SVG 20010904//EN" "http://www.w3.org/TR/2001/REC-SVG-20010904/DTD/svg10.dtd">
<svg version="1.0" xmlns="http://www.w3.org/2000/svg" width="240px" height="145px" viewBox="0 0 2400 1450" preserveAspectRatio="xMidYMid meet">
<g id="layer101" fill="#f60909" stroke="none">
 <path d="M6 1442 c5 -5 31 -26 57 -47 44 -35 60 -61 153 -247 l104 -207 -57 -43 -56 -43 203 -3 c111 -1 205 0 207 2 3 2 -45 101 -106 219 -61 118 -111 217 -111 221 0 3 83 6 185 6 l185 0 -37 75 -37 75 -350 0 c-193 0 -346 -4 -340 -8z"/>
 <path d="M780 1444 c0 -3 56 -114 125 -248 69 -134 125 -247 125 -252 0 -5 -26 -27 -56 -49 l-56 -40 406 -3 406 -2 65 47 c35 27 64 51 65 56 1 20 -94 192 -125 226 -65 71 -107 84 -294 89 l-163 4 -57 -40 -57 -40 -65 129 -64 129 -127 0 c-71 0 -128 -3 -128 -6z m733 -345 c21 -9 67 -74 67 -93 0 -3 -72 -6 -160 -6 l-160 0 -25 50 c-14 27 -25 52 -25 55 0 10 279 5 303 -6z"/>
 <path d="M1696 1393 c54 -52 72 -79 157 -250 54 -105 97 -195 97 -200 0 -4 -23 -24 -50 -43 -27 -19 -50 -38 -50 -42 0 -5 90 -8 200 -8 110 0 200 3 200 6 0 3 -50 104 -110 225 l-110 219 185 0 c102 0 185 3 185 6 0 3 -16 37 -36 75 l-36 69 -347 0 -346 0 61 -57z"/>
 <path d="M791 480 c56 -109 106 -197 111 -194 13 8 88 122 88 133 0 6 -10 31 -22 56 -12 24 -19 47 -16 50 3 3 49 4 102 3 l97 -3 -105 -155 c-58 -85 -103 -156 -101 -158 3 -4 577 429 610 459 5 5 -178 9 -429 9 l-437 0 102 -200z"/>
 <path d="M1197 313 c-213 -163 -385 -298 -383 -300 2 -2 122 55 267 128 145 72 310 153 367 180 l102 48 30 -59 c17 -33 30 -64 30 -70 0 -7 -34 -10 -98 -9 l-98 1 -149 -75 -150 -76 378 0 379 -1 -135 262 c-73 144 -138 263 -143 265 -5 1 -183 -131 -397 -294z"/>
 </g>

</svg>